<svg width="32" height="33" viewBox="0 0 32 33" fill="none" xmlns="http://www.w3.org/2000/svg">
<path d="M20.3825 10.0545C20.6766 9.76037 21.1521 9.76037 21.4431 10.0545L22.7759 11.3873C23.07 11.6814 23.07 12.1569 22.7759 12.4479L21.0645 14.1656L18.6679 11.769L20.3825 10.0545ZM17.9608 12.4761L20.3574 14.8727L12.9925 22.2345C12.7547 22.4722 12.4637 22.6443 12.1415 22.7382L9.23806 23.5954L10.0922 20.692C10.1861 20.3698 10.3613 20.0788 10.5959 19.841L17.9608 12.4761ZM22.1533 9.34738C21.4681 8.6622 20.3606 8.6622 19.6754 9.34738L9.88883 19.1308C9.53216 19.4875 9.27248 19.9255 9.13168 20.4073L8.021 24.193C7.96781 24.3682 8.01787 24.5591 8.14615 24.6873C8.27442 24.8156 8.46527 24.8657 8.64048 24.8125L12.4262 23.6987C12.908 23.5579 13.346 23.2951 13.7027 22.9415L23.4861 13.1581C24.1713 12.4729 24.1713 11.3654 23.4861 10.6802L22.1533 9.34738Z" fill="#131E23"/>
</svg>
