<svg width="32" height="33" viewBox="0 0 32 33" fill="none" xmlns="http://www.w3.org/2000/svg">
<path d="M14.5531 9.8335H17.4438C17.6156 9.8335 17.775 9.921 17.8687 10.0679L18.3469 10.8335H13.6531L14.1312 10.0679C14.2219 9.921 14.3844 9.8335 14.5563 9.8335H14.5531ZM19.5281 10.8335L18.7188 9.53975C18.4438 9.09912 17.9625 8.8335 17.4469 8.8335H14.5531C14.0375 8.8335 13.5563 9.09912 13.2812 9.53975L12.4719 10.8335H11.0031H10H9.5C9.225 10.8335 9 11.0585 9 11.3335C9 11.6085 9.225 11.8335 9.5 11.8335H10.0719L10.8687 22.9772C10.9406 24.0241 11.8125 24.8335 12.8625 24.8335H19.1375C20.1875 24.8335 21.0563 24.0241 21.1313 22.9772L21.9281 11.8335H22.5C22.775 11.8335 23 11.6085 23 11.3335C23 11.0585 22.775 10.8335 22.5 10.8335H22H20.9969H19.5281ZM20.9281 11.8335L20.1344 22.9054C20.0969 23.4272 19.6625 23.8335 19.1375 23.8335H12.8625C12.3375 23.8335 11.9031 23.4272 11.8656 22.9054L11.075 11.8335H20.925H20.9281Z" fill="#131E23"/>
</svg>
